<?xml version="1.0" encoding="utf-8"?>
<!-- Generator: Adobe Illustrator 24.1.2, SVG Export Plug-In . SVG Version: 6.00 Build 0)  -->
<svg version="1.1" id="Layer_1" xmlns="http://www.w3.org/2000/svg" xmlns:xlink="http://www.w3.org/1999/xlink" x="0px" y="0px"
	 viewBox="0 0 1917.5 379.7" style="enable-background:new 0 0 1917.5 379.7;" xml:space="preserve">
<style type="text/css">
	.st0{fill:none;stroke:#000000;stroke-width:5;stroke-miterlimit:10;}
	.st1{fill:none;stroke:#000000;stroke-width:13;stroke-miterlimit:10;}
	.st2{fill:none;stroke:#000000;stroke-width:7;stroke-miterlimit:10;}
</style>
<g>
	<g>
		<path class="st0" d="M208,131.1c32.5,0,58.9,26.4,58.9,58.9s-26.4,58.9-58.9,58.9s-58.9-26.4-58.9-58.9"/>
		<path class="st1" d="M33.8,190c0-96.2,78-174.2,174.2-174.2s174.2,78,174.2,174.2s-78,174.2-174.2,174.2"/>
		<path class="st2" d="M339,190c0,72.3-58.7,131-131,131S77,262.3,77,190S135.7,59,208,59"/>
	</g>
	<g>
		<g>
			<path d="M463,363.1V74.5h-52V17.8h180.3v56.7h-51.6v288.6L463,363.1L463,363.1z"/>
			<path d="M650.1,367.3c-12.5,0-23-3-31.5-8.9c-8.5-6-14.9-13.6-19.2-22.8c-4.3-9.2-6.4-18.7-6.4-28.3c0-15.3,3-28.3,9.2-38.8
				c6.1-10.5,14.1-19.3,24.1-26.4c10-7.1,20.9-13.1,32.8-18.1s23.7-9.4,35.4-13.4v-24.7c0-4.3-0.4-8-1.3-11.3
				c-0.9-3.3-2.3-5.8-4.3-7.7c-2-1.8-5-2.8-8.9-2.8c-4,0-7,0.9-9.2,2.6c-2.1,1.7-3.6,4-4.5,7c-0.9,3-1.4,6.3-1.7,10l-1.7,17.9
				l-64.8-2.6c1.4-29.5,9.3-51.4,23.7-65.4c14.3-14.1,35.9-21.1,64.6-21.1c25,0,43.7,6.9,56.1,20.7s18.5,31.6,18.5,53.5v115.1
				c0,10.2,0.2,19.2,0.6,26.8c0.4,7.7,1,14.3,1.7,20c0.7,5.7,1.3,10.5,1.9,14.5H703c-0.9-6.5-1.9-13.6-3-21.3
				c-1.1-7.7-2-12.2-2.6-13.6c-2.8,10.2-8.2,19.3-16,27.3C673.6,363.3,663.1,367.3,650.1,367.3z M674.8,320.4c2.8,0,5.5-0.6,7.9-1.7
				c2.4-1.1,4.6-2.7,6.6-4.7c2-2,3.7-4,5.1-6v-67.4c-5.7,3.4-10.9,6.9-15.8,10.4c-4.8,3.6-8.9,7.5-12.4,11.7
				c-3.4,4.3-6,8.9-7.9,13.9c-1.9,5-2.8,10.6-2.8,16.8c0,8.2,1.7,14.8,5.1,19.6C664.1,318,668.8,320.4,674.8,320.4z"/>
			<path d="M864.9,367.3c-21.6,0-39.6-4.8-53.9-14.5c-14.3-9.7-26.1-25.4-35.2-47.3l47.3-20.9c4.5,11.1,9.9,19.8,16,26.2
				c6.1,6.4,12.9,9.6,20.3,9.6c5.4,0,9.4-1.1,12.1-3.4c2.7-2.3,4-5.4,4-9.4c0-6.5-2.5-12.5-7.5-17.9c-5-5.4-13.9-13.4-26.6-23.9
				L823.6,251c-13.1-11.1-23.4-21.8-30.9-32.2c-7.5-10.4-11.3-23.2-11.3-38.6c0-13.4,3.5-25.2,10.4-35.4c7-10.2,16.3-18.2,27.9-23.9
				c11.6-5.7,24.2-8.5,37.5-8.5c20.2,0,37.1,5.5,50.7,16.6s23.1,26.7,28.6,46.9l-44.7,20.5c-1.7-5.4-4.1-10.8-7.3-16.2
				c-3.1-5.4-6.9-10-11.3-13.6c-4.4-3.7-9.2-5.5-14.3-5.5c-4.6,0-8.2,1.3-10.9,3.8c-2.7,2.6-4,6-4,10.2c0,5.4,3,11.2,9.2,17.5
				c6.1,6.3,14.6,13.8,25.4,22.6l17.5,15.3c7.1,6,14.1,12.4,20.9,19.2c6.8,6.8,12.4,14.3,16.8,22.6c4.4,8.2,6.6,17.6,6.6,28.1
				c0,14.2-3.6,26.4-10.7,36.4c-7.1,10.1-16.4,17.7-27.9,22.8C890.3,364.8,878,367.3,864.9,367.3z"/>
			<path d="M1032.9,365.6c-18.5,0-32.8-2.7-42.8-8.1c-10.1-5.4-17-13.3-20.7-23.7c-3.7-10.4-5.5-22.9-5.5-37.7V162.3h-23.9v-45.6
				h23.9v-75h70.3v75h34.9v45.6h-34.9v127c0,7.1,2.1,12.2,6.2,15.3c4.1,3.1,9.3,4.7,15.6,4.7c3.7,0,7.1-0.2,10.2-0.6
				c3.1-0.4,6-0.8,8.5-1.1v54.6c-3.7,0.6-9.5,1.3-17.5,2.1C1049.2,365.2,1041.1,365.6,1032.9,365.6z"/>
			<path d="M1174.8,367.3c-17.9,0-33.2-3.2-46-9.6c-12.8-6.4-22.6-15.8-29.4-28.1c-6.8-12.4-10.2-27.2-10.2-44.5v-90.4
				c0-17.6,3.4-32.5,10.2-44.7c6.8-12.2,16.7-21.5,29.6-27.9s28.2-9.6,45.8-9.6c18.2,0,33.3,3.1,45.4,9.4
				c12.1,6.3,21.2,15.5,27.3,27.7c6.1,12.2,9.2,27.3,9.2,45.2v49.5h-98.9v47.3c0,6.3,0.7,11.4,2.1,15.3c1.4,4,3.4,6.8,6,8.5
				c2.6,1.7,5.5,2.6,9,2.6c3.4,0,6.5-0.8,9.2-2.4c2.7-1.5,4.8-4,6.4-7.5c1.6-3.4,2.4-8.1,2.4-14.1v-26h63.9v23.9
				c0,25-7.3,43.8-21.7,56.5C1220.4,361,1200.4,367.3,1174.8,367.3z M1157.7,211.7h34.9V187c0-6.5-0.8-11.6-2.4-15.3
				c-1.6-3.7-3.7-6.3-6.4-7.7c-2.7-1.4-5.9-2.1-9.6-2.1c-3.4,0-6.3,0.9-8.7,2.6c-2.4,1.7-4.3,4.6-5.8,8.7c-1.4,4.1-2.1,10-2.1,17.7
				L1157.7,211.7L1157.7,211.7z"/>
			<path d="M1316.3,363.1V74.5h-52V17.8h180.3v56.7H1393v288.6L1316.3,363.1L1316.3,363.1z"/>
			<path d="M1503.4,367.3c-12.5,0-23-3-31.5-8.9c-8.5-6-14.9-13.6-19.2-22.8c-4.3-9.2-6.4-18.7-6.4-28.3c0-15.3,3-28.3,9.2-38.8
				c6.1-10.5,14.1-19.3,24.1-26.4c10-7.1,20.9-13.1,32.8-18.1s23.7-9.4,35.4-13.4v-24.7c0-4.3-0.4-8-1.3-11.3
				c-0.9-3.3-2.3-5.8-4.3-7.7c-2-1.8-5-2.8-9-2.8c-4,0-7,0.9-9.2,2.6c-2.1,1.7-3.6,4-4.5,7c-0.9,3-1.4,6.3-1.7,10l-1.7,17.9
				l-64.8-2.6c1.4-29.5,9.3-51.4,23.7-65.4c14.3-14.1,35.9-21.1,64.6-21.1c25,0,43.7,6.9,56.1,20.7s18.5,31.6,18.5,53.5v115.1
				c0,10.2,0.2,19.2,0.6,26.8c0.4,7.7,1,14.3,1.7,20c0.7,5.7,1.3,10.5,1.9,14.5h-62.2c-0.9-6.5-1.9-13.6-3-21.3
				c-1.1-7.7-2-12.2-2.6-13.6c-2.8,10.2-8.2,19.3-16,27.3C1526.9,363.3,1516.5,367.3,1503.4,367.3z M1528.2,320.4
				c2.8,0,5.5-0.6,7.9-1.7c2.4-1.1,4.6-2.7,6.6-4.7c2-2,3.7-4,5.1-6v-67.4c-5.7,3.4-10.9,6.9-15.8,10.4c-4.8,3.6-9,7.5-12.4,11.7
				c-3.4,4.3-6,8.9-7.9,13.9c-1.9,5-2.8,10.6-2.8,16.8c0,8.2,1.7,14.8,5.1,19.6C1517.5,318,1522.2,320.4,1528.2,320.4z"/>
			<path d="M1651.3,363.1V163.6h-23.4v-46.9h23.4V98.4c0-14.5,1.5-27.1,4.5-37.9c3-10.8,9.2-19.2,18.8-25.2c9.5-6,24.2-8.9,44.1-8.9
				c5.4,0,10.7,0.1,16,0.4c5.2,0.3,11,0.9,17.3,1.7V80c-2-0.6-4.3-1.1-7-1.5c-2.7-0.4-5.3-0.6-7.9-0.6c-5.1,0-9.1,1.5-11.9,4.5
				c-2.8,3-4.3,7.9-4.3,14.7v19.6h31.1v46.9h-31.1v199.5L1651.3,363.1L1651.3,363.1z"/>
			<path d="M1841.9,365.6c-18.5,0-32.8-2.7-42.8-8.1c-10.1-5.4-17-13.3-20.7-23.7c-3.7-10.4-5.5-22.9-5.5-37.7V162.3h-23.9v-45.6
				h23.9v-75h70.3v75h34.9v45.6h-34.9v127c0,7.1,2.1,12.2,6.2,15.3s9.3,4.7,15.6,4.7c3.7,0,7.1-0.2,10.2-0.6c3.1-0.4,6-0.8,8.5-1.1
				v54.6c-3.7,0.6-9.5,1.3-17.5,2.1C1858.2,365.2,1850.1,365.6,1841.9,365.6z"/>
		</g>
	</g>
</g>
</svg>
